<svg xmlns="http://www.w3.org/2000/svg" viewBox="0 0 86 26"><title>pj-logo-header</title><g id="90424e1c-246a-4627-941f-dc3d024f819d" data-name="header"><path d="M32.06,18.13a2.81,2.81,0,0,1-1.52-.41,3.08,3.08,0,0,1-1-1.07V20.9H28V10.83h1.33v1.29a3.13,3.13,0,0,1,1.06-1,2.84,2.84,0,0,1,1.47-.38,3,3,0,0,1,1.35.3,3.44,3.44,0,0,1,1.07.81A3.73,3.73,0,0,1,35,13a4,4,0,0,1,.25,1.41A4.46,4.46,0,0,1,35,15.86,3.62,3.62,0,0,1,34.35,17a3.21,3.21,0,0,1-1,.79A2.79,2.79,0,0,1,32.06,18.13Zm-.49-1.29a1.84,1.84,0,0,0,.87-.21,2.16,2.16,0,0,0,.67-.55,2.49,2.49,0,0,0,.43-.78,2.76,2.76,0,0,0,.15-.9,2.54,2.54,0,0,0-.17-.93,2.5,2.5,0,0,0-.47-.77,2.17,2.17,0,0,0-.7-.52,2.08,2.08,0,0,0-.89-.19,1.84,1.84,0,0,0-.6.11,2.39,2.39,0,0,0-.59.3,2.34,2.34,0,0,0-.48.44,1.51,1.51,0,0,0-.29.55v1.87a2.78,2.78,0,0,0,.36.62,2.66,2.66,0,0,0,.49.49,2.35,2.35,0,0,0,.58.33A1.75,1.75,0,0,0,31.57,16.84Z" style="fill:#ff6d00"/><path d="M39.85,18.13a3.81,3.81,0,0,1-1.52-.29,3.53,3.53,0,0,1-1.17-.8,3.6,3.6,0,0,1-.75-1.18,3.81,3.81,0,0,1-.27-1.42A3.87,3.87,0,0,1,36.41,13a3.67,3.67,0,0,1,.75-1.19A3.48,3.48,0,0,1,38.33,11a3.85,3.85,0,0,1,1.53-.29,3.68,3.68,0,0,1,1.51.3,3.62,3.62,0,0,1,1.16.8A3.43,3.43,0,0,1,43.27,13a3.88,3.88,0,0,1,.25,1.39c0,.11,0,.21,0,.31s0,.18,0,.24H37.74a2.44,2.44,0,0,0,.23.86,2.25,2.25,0,0,0,.48.66,2.1,2.1,0,0,0,1.46.58,2.42,2.42,0,0,0,.6-.08,2.09,2.09,0,0,0,.54-.22,2,2,0,0,0,.44-.35,1.69,1.69,0,0,0,.3-.45l1.29.37a3,3,0,0,1-1.23,1.32A3.8,3.8,0,0,1,39.85,18.13ZM42,13.87A2.41,2.41,0,0,0,41.8,13a2.13,2.13,0,0,0-.47-.65,2.1,2.1,0,0,0-.67-.42,2.19,2.19,0,0,0-.81-.15,2.14,2.14,0,0,0-1.46.57,2.07,2.07,0,0,0-.46.65,2.49,2.49,0,0,0-.22.83Z" style="fill:#ff6d00"/><path d="M46.64,18.13a2.65,2.65,0,0,1-1-.17,2.34,2.34,0,0,1-.77-.47,2.22,2.22,0,0,1-.51-.71,2.14,2.14,0,0,1-.18-.89,1.91,1.91,0,0,1,.22-.92,2.14,2.14,0,0,1,.62-.71,3,3,0,0,1,1-.47,4.3,4.3,0,0,1,1.22-.16,5.67,5.67,0,0,1,1,.09,4.94,4.94,0,0,1,.89.24v-.49a1.66,1.66,0,0,0-.45-1.24,1.78,1.78,0,0,0-1.3-.44,3.13,3.13,0,0,0-1.13.21,5.73,5.73,0,0,0-1.14.61l-.46-1a5.07,5.07,0,0,1,2.87-.93,3.28,3.28,0,0,1,2.3.75,2.79,2.79,0,0,1,.82,2.16v2.59c0,.32.13.48.4.49V18l-.38.05h-.31a1,1,0,0,1-.68-.22.94.94,0,0,1-.29-.56l0-.45a3.19,3.19,0,0,1-1.18,1A3.48,3.48,0,0,1,46.64,18.13ZM47.05,17a2.71,2.71,0,0,0,1-.2,1.78,1.78,0,0,0,.76-.55.69.69,0,0,0,.29-.52V14.8a4.63,4.63,0,0,0-.81-.23,4.5,4.5,0,0,0-.84-.08,2.3,2.3,0,0,0-1.32.35,1.07,1.07,0,0,0-.51.92,1.17,1.17,0,0,0,.4.9A1.45,1.45,0,0,0,47.05,17Z" style="fill:#ff6d00"/><path d="M51.9,14.4A3.89,3.89,0,0,1,52.16,13a3.49,3.49,0,0,1,1.92-2,3.84,3.84,0,0,1,1.53-.29,3.61,3.61,0,0,1,1.91.49,3.09,3.09,0,0,1,1.2,1.29L57.25,13a1.88,1.88,0,0,0-.7-.71,1.91,1.91,0,0,0-1-.25,2,2,0,0,0-1.52.68,2.37,2.37,0,0,0-.45.76,2.75,2.75,0,0,0-.16,1,2.66,2.66,0,0,0,.17,1,2.47,2.47,0,0,0,.46.77,2.15,2.15,0,0,0,.68.51,1.91,1.91,0,0,0,.83.18,2.08,2.08,0,0,0,.55-.08,2,2,0,0,0,.5-.21,2,2,0,0,0,.4-.32,1.18,1.18,0,0,0,.25-.38l1.48.44a2.93,2.93,0,0,1-1.19,1.32,3.69,3.69,0,0,1-2,.51,3.73,3.73,0,0,1-1.52-.3A3.57,3.57,0,0,1,52.92,17a3.69,3.69,0,0,1-.75-1.18A3.81,3.81,0,0,1,51.9,14.4Z" style="fill:#ff6d00"/><path d="M66.37,18H64.86V14a2.45,2.45,0,0,0-.35-1.46,1.17,1.17,0,0,0-1-.47,1.72,1.72,0,0,0-.63.12,2.27,2.27,0,0,0-.6.35,2.66,2.66,0,0,0-.5.53,2.32,2.32,0,0,0-.33.68V18H60V8h1.5v4.27a3,3,0,0,1,2.66-1.56,2.25,2.25,0,0,1,1.1.24,1.93,1.93,0,0,1,.69.64,2.57,2.57,0,0,1,.36.92,5.83,5.83,0,0,1,.1,1.12Z" style="fill:#ff6d00"/><path d="M67.26,20.6a2.83,2.83,0,0,1-.93-.15,2.34,2.34,0,0,1-.79-.46l.67-1a1.09,1.09,0,0,0,.41.24,1.52,1.52,0,0,0,.46.08,1,1,0,0,0,1-1V10.83h1.5v7.31a2.61,2.61,0,0,1-.18,1,2.41,2.41,0,0,1-.51.78,2.25,2.25,0,0,1-.75.51A2.31,2.31,0,0,1,67.26,20.6Zm.84-10.95V8h1.5V9.66Z" style="fill:#ff6d00"/><path d="M73.3,18.13a2.65,2.65,0,0,1-1-.17,2.34,2.34,0,0,1-.77-.47,2.2,2.2,0,0,1-.51-.71,2.13,2.13,0,0,1-.19-.89A1.91,1.91,0,0,1,71.1,15a2.13,2.13,0,0,1,.62-.71,3,3,0,0,1,1-.47,4.3,4.3,0,0,1,1.22-.16,5.67,5.67,0,0,1,1,.09,5,5,0,0,1,.89.24v-.49a1.66,1.66,0,0,0-.45-1.24,1.78,1.78,0,0,0-1.3-.44,3.13,3.13,0,0,0-1.13.21,5.73,5.73,0,0,0-1.14.61l-.46-1a5.07,5.07,0,0,1,2.87-.93,3.28,3.28,0,0,1,2.3.75,2.79,2.79,0,0,1,.82,2.16v2.59c0,.32.13.48.4.49V18l-.38.05H77a1,1,0,0,1-.68-.22.94.94,0,0,1-.29-.56l0-.45a3.19,3.19,0,0,1-1.18,1A3.47,3.47,0,0,1,73.3,18.13ZM73.71,17a2.72,2.72,0,0,0,1-.2,1.78,1.78,0,0,0,.76-.55.69.69,0,0,0,.29-.52V14.8a4.63,4.63,0,0,0-.81-.23,4.49,4.49,0,0,0-.84-.08,2.3,2.3,0,0,0-1.32.35,1.07,1.07,0,0,0-.51.92,1.17,1.17,0,0,0,.4.9A1.45,1.45,0,0,0,73.71,17Z" style="fill:#ff6d00"/><path d="M83.13,12.13a3.37,3.37,0,0,0-1.55.4,2.13,2.13,0,0,0-1,1.07V18H79.1V10.83h1.4v1.6a3.27,3.27,0,0,1,1-1.18,2.34,2.34,0,0,1,1.28-.49h.38Z" style="fill:#ff6d00"/><path d="M20.79,15.74C20.53,9,13.33,8.46,13.33,8.46c-3.47-.72-4.71,1.73-4.16,4.09,0,0,1.23,9.7,2.37,13.45C13.66,23.86,21.06,22.49,20.79,15.74Z" style="fill:#ff6d00"/><path d="M8.6,0c2,1.83,3.81,4.17,4.05,6.79a7.72,7.72,0,0,1-1.2,4.93,5.28,5.28,0,0,1-4.31-5A13.74,13.74,0,0,1,8.6,0Z" style="fill:#4caf50"/><path d="M11.92,11.78c.57-4.91,6.13-5.22,6.13-5.22l-.6-1.47A8,8,0,0,0,11,11.72,6.63,6.63,0,0,1,11.92,11.78Z" style="fill:#aa721b"/><path d="M18.05,17.42c0-5.74-6.8-5.7-6.8-5.7a3.75,3.75,0,0,0-3.38-1.53A12.26,12.26,0,0,0,4,10.81L3.83,11a7.23,7.23,0,0,0-.09,9.75C6.17,23.55,10,24.94,11.53,26,11.53,24.22,18.05,22.17,18.05,17.42Z" style="fill:#ffab00"/><path id="e75eadba-98be-434f-9595-807cd3e4bf6a" data-name="path126" d="M6.26,6.4A27.78,27.78,0,0,0,0,5.49a11.16,11.16,0,0,0,3.47,4.94,8.33,8.33,0,0,0,7.78,1.3C11.27,10.59,9.33,7.27,6.26,6.4Z" style="fill:#64dd17"/></g></svg>